<svg width="20" height="20" fill="none" xmlns="http://www.w3.org/2000/svg"><g clip-path="url(#clip0_89_1419)"><path d="M5.833 11.667A.833.833 0 015 12.5h-.833a.833.833 0 110-1.667H5a.833.833 0 01.833.834zm3.334-.834h-.834a.833.833 0 100 1.667h.834a.833.833 0 100-1.667zM5 14.167h-.833a.834.834 0 000 1.666H5a.834.834 0 000-1.666zm4.167 0h-.834a.834.834 0 000 1.666h.834a.834.834 0 000-1.666zM5 4.167h-.833a.833.833 0 100 1.666H5a.833.833 0 100-1.666zm4.167 0h-.834a.833.833 0 100 1.666h.834a.833.833 0 100-1.666zM5 7.5h-.833a.833.833 0 100 1.667H5A.833.833 0 005 7.5zm4.167 0h-.834a.833.833 0 000 1.667h.834a.833.833 0 000-1.667zM20 8.333v7.5A4.172 4.172 0 0115.833 20H4.167A4.172 4.172 0 010 15.833V4.167A4.172 4.172 0 014.167 0h5a4.172 4.172 0 014.166 4.167h2.5A4.172 4.172 0 0120 8.333zm-15.833 10h7.5V4.167a2.5 2.5 0 00-2.5-2.5h-5a2.5 2.5 0 00-2.5 2.5v11.666a2.5 2.5 0 002.5 2.5zm14.166-10a2.5 2.5 0 00-2.5-2.5h-2.5v12.5h2.5a2.5 2.5 0 002.5-2.5v-7.5zm-2.5 2.5a.833.833 0 100 1.666.833.833 0 000-1.666zm0 3.334a.833.833 0 100 1.665.833.833 0 000-1.665zm0-6.667a.833.833 0 100 1.666.833.833 0 000-1.666z" fill="#fff"/></g><defs><clipPath id="clip0_89_1419"><path fill="#fff" d="M0 0h20v20H0z"/></clipPath></defs></svg>