<svg width="20" height="20" fill="none" xmlns="http://www.w3.org/2000/svg"><g clip-path="url(#clip0_89_1407)"><path d="M15.833 3.333h-.916A4.174 4.174 0 0010.833 0H9.167a4.174 4.174 0 00-4.084 3.333h-.916A4.172 4.172 0 000 7.5v8.333A4.172 4.172 0 004.167 20h11.666A4.172 4.172 0 0020 15.833V7.5a4.172 4.172 0 00-4.167-4.167zM9.167 1.667h1.666a2.5 2.5 0 012.347 1.666H6.82a2.5 2.5 0 012.347-1.666zM4.167 5h11.666a2.5 2.5 0 012.5 2.5V10H1.667V7.5a2.5 2.5 0 012.5-2.5zm11.666 13.333H4.167a2.5 2.5 0 01-2.5-2.5v-4.166h7.5v.833a.833.833 0 001.666 0v-.833h7.5v4.166a2.5 2.5 0 01-2.5 2.5z" fill="#fff"/></g><defs><clipPath id="clip0_89_1407"><path fill="#fff" d="M0 0h20v20H0z"/></clipPath></defs></svg>