<svg width="20" height="20" fill="none" xmlns="http://www.w3.org/2000/svg"><g clip-path="url(#clip0_89_1411)"><path d="M18.381 4.358l-6.145-2.927a4.355 4.355 0 00-4.402-.038L1.62 4.358a3.076 3.076 0 000 5.417l1.714.817v4.083a4.173 4.173 0 002.932 3.982 13 13 0 003.735.51 12.97 12.97 0 003.734-.506 4.173 4.173 0 002.932-3.982V10.59l1.667-.797v6.874a.833.833 0 001.666 0v-10c.006-.979-.767-1.883-1.619-2.309zm-3.38 10.321a2.5 2.5 0 01-1.75 2.386A11.325 11.325 0 0110 17.5a11.326 11.326 0 01-3.25-.435A2.5 2.5 0 015 14.679v-3.293l2.764 1.317a4.393 4.393 0 002.254.615 4.168 4.168 0 002.147-.578L15 11.386v3.293zm2.666-6.408l-6.285 3a2.745 2.745 0 01-2.825-.038l-6.15-2.925a1.41 1.41 0 01-.03-2.465L8.623 2.86a2.75 2.75 0 012.825.038l6.145 2.927c.452.25.735.725.74 1.242.002.49-.25.945-.666 1.204z" fill="#fff"/></g><defs><clipPath id="clip0_89_1411"><path fill="#fff" d="M0 0h20v20H0z"/></clipPath></defs></svg>