<svg width="20" height="20" fill="none" xmlns="http://www.w3.org/2000/svg"><g clip-path="url(#clip0_89_1393)"><path d="M15.833 1.667H15V.833a.833.833 0 10-1.667 0v.834H6.667V.833A.833.833 0 105 .833v.834h-.833A4.171 4.171 0 000 5.833v10A4.171 4.171 0 004.167 20h11.666A4.171 4.171 0 0020 15.833v-10a4.171 4.171 0 00-4.167-4.166zM4.167 3.333h11.666c1.379 0 2.5 1.122 2.5 2.5v.834H1.667v-.834c0-1.378 1.121-2.5 2.5-2.5zm11.666 15H4.167a2.503 2.503 0 01-2.5-2.5v-7.5h16.666v7.5c0 1.379-1.121 2.5-2.5 2.5zm0-6.666c0 .46-.372.833-.833.833H5a.833.833 0 110-1.667h10c.46 0 .833.374.833.834zM10 15c0 .46-.373.833-.833.833H5a.833.833 0 110-1.666h4.167c.46 0 .833.373.833.833z" fill="#fff"/></g><defs><clipPath id="clip0_89_1393"><path fill="#fff" d="M0 0h20v20H0z"/></clipPath></defs></svg>