<svg width="20" height="20" viewBox="0 0 20 20" fill="none" xmlns="http://www.w3.org/2000/svg">
<g clip-path="url(#clip0_89_1411)">
<path d="M18.3813 4.35833L12.2363 1.43083C10.8836 0.622866 9.20002 0.60853 7.83377 1.39333L1.61963 4.35833C1.59631 4.37001 1.57213 4.38251 1.54963 4.39583C0.0749379 5.23904 -0.437015 7.11806 0.406188 8.59275C0.692008 9.09267 1.11244 9.50228 1.61963 9.77501L3.3338 10.5917V14.675C3.33482 16.5009 4.52291 18.114 6.26631 18.6567C7.47955 19.0077 8.73756 19.1795 10.0005 19.1667C11.2632 19.1808 12.5212 19.0104 13.7347 18.6609C15.4781 18.1183 16.6661 16.5051 16.6672 14.6792V10.59L18.3338 9.79333V16.6667C18.3338 17.1269 18.7069 17.5 19.1672 17.5C19.6274 17.5 20.0005 17.1269 20.0005 16.6667V6.66665C20.006 5.6881 19.2334 4.78412 18.3813 4.35833ZM15.0004 14.6792C15.0009 15.7713 14.2923 16.7374 13.2504 17.065C12.194 17.3669 11.0992 17.5134 10.0004 17.5C8.90173 17.5134 7.80693 17.3669 6.75045 17.065C5.70861 16.7374 5.00002 15.7713 5.00045 14.6792V11.3859L7.76463 12.7026C8.44666 13.1076 9.2256 13.3204 10.0188 13.3184C10.7738 13.3237 11.5161 13.1238 12.1663 12.7401L15.0004 11.3858V14.6792ZM17.6671 8.27083L11.3821 11.2708C10.5058 11.7811 9.41959 11.7667 8.55713 11.2333L2.40795 8.30833C1.72252 7.93872 1.4665 7.08345 1.83611 6.39806C1.96111 6.16626 2.14853 5.97412 2.37713 5.84333L8.62295 2.86001C9.49955 2.35087 10.5852 2.36529 11.4479 2.89751L17.5929 5.82501C18.0449 6.07595 18.3276 6.54982 18.3338 7.06669C18.3346 7.5563 18.0825 8.01162 17.6671 8.27083Z" fill="white"/>
</g>
<defs>
<clipPath id="clip0_89_1411">
<rect width="20" height="20" fill="white"/>
</clipPath>
</defs>
</svg>
